<mxfile host="app.diagrams.net" modified="2023-04-28T16:46:59.891Z" agent="Mozilla/5.0 (Windows NT 10.0; Win64; x64) AppleWebKit/537.36 (KHTML, like Gecko) Chrome/112.0.0.0 Safari/537.36" etag="4LJOl7y_mPAU8BAUyYW9" version="21.2.3" type="device">
  <diagram id="ql5Kk59QJ9DEcHVxNvi2" name="Page-1">
    <mxGraphModel dx="1674" dy="756" grid="1" gridSize="10" guides="1" tooltips="1" connect="1" arrows="1" fold="1" page="1" pageScale="1" pageWidth="827" pageHeight="1169" math="0" shadow="0">
      <root>
        <mxCell id="0" />
        <mxCell id="1" parent="0" />
        <mxCell id="y30Y0a8EccLe6s_auats-1" value="Process (0)" style="swimlane;fillColor=#E6E6E6;" parent="1" vertex="1">
          <mxGeometry x="275" y="50" width="115" height="100" as="geometry" />
        </mxCell>
        <mxCell id="y30Y0a8EccLe6s_auats-13" value="Selezione pellicole" style="text;html=1;align=center;verticalAlign=middle;resizable=0;points=[];autosize=1;strokeColor=none;fillColor=none;" parent="y30Y0a8EccLe6s_auats-1" vertex="1">
          <mxGeometry x="-5" y="35" width="120" height="30" as="geometry" />
        </mxCell>
        <mxCell id="y30Y0a8EccLe6s_auats-5" value="" style="group" parent="1" vertex="1" connectable="0">
          <mxGeometry x="40" y="40" width="110" height="110" as="geometry" />
        </mxCell>
        <mxCell id="y30Y0a8EccLe6s_auats-6" value="Titolare" style="rounded=0;whiteSpace=wrap;html=1;fillColor=none;" parent="y30Y0a8EccLe6s_auats-5" vertex="1">
          <mxGeometry width="110" height="110.00000000000001" as="geometry" />
        </mxCell>
        <mxCell id="y30Y0a8EccLe6s_auats-7" value="ID" style="text;html=1;strokeColor=none;fillColor=none;align=center;verticalAlign=middle;whiteSpace=wrap;rounded=0;" parent="y30Y0a8EccLe6s_auats-5" vertex="1">
          <mxGeometry width="44" height="23.571428571428577" as="geometry" />
        </mxCell>
        <mxCell id="y30Y0a8EccLe6s_auats-8" value="" style="group" parent="1" vertex="1" connectable="0">
          <mxGeometry x="510" y="42.5" width="110" height="105" as="geometry" />
        </mxCell>
        <mxCell id="y30Y0a8EccLe6s_auats-9" value="Agente distributore" style="rounded=0;whiteSpace=wrap;html=1;fillColor=none;" parent="y30Y0a8EccLe6s_auats-8" vertex="1">
          <mxGeometry width="109.99999999999999" height="105" as="geometry" />
        </mxCell>
        <mxCell id="y30Y0a8EccLe6s_auats-10" value="ID" style="text;html=1;strokeColor=none;fillColor=none;align=center;verticalAlign=middle;whiteSpace=wrap;rounded=0;" parent="y30Y0a8EccLe6s_auats-8" vertex="1">
          <mxGeometry width="44" height="22.5" as="geometry" />
        </mxCell>
        <mxCell id="y30Y0a8EccLe6s_auats-11" value="" style="endArrow=classic;html=1;rounded=0;exitX=-0.021;exitY=1.096;exitDx=0;exitDy=0;entryX=1.002;entryY=0.185;entryDx=0;entryDy=0;entryPerimeter=0;exitPerimeter=0;" parent="1" source="y30Y0a8EccLe6s_auats-10" target="y30Y0a8EccLe6s_auats-1" edge="1">
          <mxGeometry relative="1" as="geometry">
            <mxPoint x="270" y="-50" as="sourcePoint" />
            <mxPoint x="370" y="-50" as="targetPoint" />
          </mxGeometry>
        </mxCell>
        <mxCell id="y30Y0a8EccLe6s_auats-12" value="Proposta pellicola" style="edgeLabel;resizable=0;html=1;align=center;verticalAlign=middle;" parent="y30Y0a8EccLe6s_auats-11" connectable="0" vertex="1">
          <mxGeometry relative="1" as="geometry" />
        </mxCell>
        <mxCell id="y30Y0a8EccLe6s_auats-14" value="" style="endArrow=classic;html=1;rounded=0;entryX=1;entryY=0.25;entryDx=0;entryDy=0;exitX=-0.004;exitY=0.181;exitDx=0;exitDy=0;exitPerimeter=0;" parent="1" source="y30Y0a8EccLe6s_auats-1" target="y30Y0a8EccLe6s_auats-6" edge="1">
          <mxGeometry relative="1" as="geometry">
            <mxPoint x="280" y="80" as="sourcePoint" />
            <mxPoint x="450" y="-20" as="targetPoint" />
          </mxGeometry>
        </mxCell>
        <mxCell id="y30Y0a8EccLe6s_auats-15" value="Valutazione pellicola" style="edgeLabel;resizable=0;html=1;align=center;verticalAlign=middle;" parent="y30Y0a8EccLe6s_auats-14" connectable="0" vertex="1">
          <mxGeometry relative="1" as="geometry" />
        </mxCell>
        <mxCell id="y30Y0a8EccLe6s_auats-21" value="" style="endArrow=classic;html=1;rounded=0;entryX=0.05;entryY=0.017;entryDx=0;entryDy=0;entryPerimeter=0;exitX=1.002;exitY=0.416;exitDx=0;exitDy=0;exitPerimeter=0;" parent="1" source="y30Y0a8EccLe6s_auats-6" target="y30Y0a8EccLe6s_auats-13" edge="1">
          <mxGeometry relative="1" as="geometry">
            <mxPoint x="150" y="89" as="sourcePoint" />
            <mxPoint x="270" y="90" as="targetPoint" />
          </mxGeometry>
        </mxCell>
        <mxCell id="y30Y0a8EccLe6s_auats-22" value="Esito valutazione" style="edgeLabel;resizable=0;html=1;align=center;verticalAlign=middle;" parent="y30Y0a8EccLe6s_auats-21" connectable="0" vertex="1">
          <mxGeometry relative="1" as="geometry" />
        </mxCell>
        <mxCell id="y30Y0a8EccLe6s_auats-23" value="" style="endArrow=classic;html=1;rounded=0;exitX=0.997;exitY=0.054;exitDx=0;exitDy=0;entryX=-0.009;entryY=0.431;entryDx=0;entryDy=0;exitPerimeter=0;entryPerimeter=0;" parent="1" source="y30Y0a8EccLe6s_auats-13" target="y30Y0a8EccLe6s_auats-9" edge="1">
          <mxGeometry relative="1" as="geometry">
            <mxPoint x="390" y="94.86000000000001" as="sourcePoint" />
            <mxPoint x="515" y="94.86000000000001" as="targetPoint" />
          </mxGeometry>
        </mxCell>
        <mxCell id="y30Y0a8EccLe6s_auats-24" value="Esito titolare" style="edgeLabel;resizable=0;html=1;align=center;verticalAlign=middle;" parent="y30Y0a8EccLe6s_auats-23" connectable="0" vertex="1">
          <mxGeometry relative="1" as="geometry" />
        </mxCell>
        <mxCell id="y30Y0a8EccLe6s_auats-25" value="" style="endArrow=classic;html=1;rounded=0;exitX=-0.004;exitY=0.587;exitDx=0;exitDy=0;exitPerimeter=0;entryX=1.004;entryY=0.544;entryDx=0;entryDy=0;entryPerimeter=0;" parent="1" source="y30Y0a8EccLe6s_auats-9" target="y30Y0a8EccLe6s_auats-13" edge="1">
          <mxGeometry relative="1" as="geometry">
            <mxPoint x="500" y="120" as="sourcePoint" />
            <mxPoint x="390" y="120" as="targetPoint" />
          </mxGeometry>
        </mxCell>
        <mxCell id="y30Y0a8EccLe6s_auats-26" value="Proposte alternative" style="edgeLabel;resizable=0;html=1;align=center;verticalAlign=middle;" parent="y30Y0a8EccLe6s_auats-25" connectable="0" vertex="1">
          <mxGeometry relative="1" as="geometry" />
        </mxCell>
        <mxCell id="y30Y0a8EccLe6s_auats-27" value="" style="endArrow=classic;html=1;rounded=0;exitX=1.004;exitY=0.684;exitDx=0;exitDy=0;exitPerimeter=0;entryX=0.029;entryY=1.054;entryDx=0;entryDy=0;entryPerimeter=0;" parent="1" source="y30Y0a8EccLe6s_auats-6" target="y30Y0a8EccLe6s_auats-13" edge="1">
          <mxGeometry relative="1" as="geometry">
            <mxPoint x="150" y="120" as="sourcePoint" />
            <mxPoint x="270" y="120" as="targetPoint" />
          </mxGeometry>
        </mxCell>
        <mxCell id="y30Y0a8EccLe6s_auats-28" value="Proposta prezzo" style="edgeLabel;resizable=0;html=1;align=center;verticalAlign=middle;" parent="y30Y0a8EccLe6s_auats-27" connectable="0" vertex="1">
          <mxGeometry relative="1" as="geometry" />
        </mxCell>
        <mxCell id="y30Y0a8EccLe6s_auats-29" value="" style="endArrow=classic;html=1;rounded=0;entryX=0.004;entryY=0.732;entryDx=0;entryDy=0;entryPerimeter=0;" parent="1" target="y30Y0a8EccLe6s_auats-9" edge="1">
          <mxGeometry relative="1" as="geometry">
            <mxPoint x="390" y="120" as="sourcePoint" />
            <mxPoint x="505" y="160" as="targetPoint" />
          </mxGeometry>
        </mxCell>
        <mxCell id="y30Y0a8EccLe6s_auats-30" value="Proposta prezzo" style="edgeLabel;resizable=0;html=1;align=center;verticalAlign=middle;" parent="y30Y0a8EccLe6s_auats-29" connectable="0" vertex="1">
          <mxGeometry relative="1" as="geometry" />
        </mxCell>
        <mxCell id="y30Y0a8EccLe6s_auats-31" value="" style="endArrow=classic;html=1;rounded=0;exitX=-0.004;exitY=0.64;exitDx=0;exitDy=0;exitPerimeter=0;" parent="1" edge="1">
          <mxGeometry relative="1" as="geometry">
            <mxPoint x="510" y="140" as="sourcePoint" />
            <mxPoint x="390" y="140" as="targetPoint" />
          </mxGeometry>
        </mxCell>
        <mxCell id="y30Y0a8EccLe6s_auats-32" value="Approvazione prezzo" style="edgeLabel;resizable=0;html=1;align=center;verticalAlign=middle;" parent="y30Y0a8EccLe6s_auats-31" connectable="0" vertex="1">
          <mxGeometry relative="1" as="geometry" />
        </mxCell>
        <mxCell id="y30Y0a8EccLe6s_auats-34" value="" style="endArrow=classic;html=1;rounded=0;entryX=1.004;entryY=0.886;entryDx=0;entryDy=0;entryPerimeter=0;" parent="1" target="y30Y0a8EccLe6s_auats-6" edge="1">
          <mxGeometry relative="1" as="geometry">
            <mxPoint x="270" y="140" as="sourcePoint" />
            <mxPoint x="402" y="150" as="targetPoint" />
          </mxGeometry>
        </mxCell>
        <mxCell id="y30Y0a8EccLe6s_auats-35" value="Approvazione prezzo" style="edgeLabel;resizable=0;html=1;align=center;verticalAlign=middle;" parent="y30Y0a8EccLe6s_auats-34" connectable="0" vertex="1">
          <mxGeometry relative="1" as="geometry" />
        </mxCell>
        <mxCell id="y30Y0a8EccLe6s_auats-36" value="" style="endArrow=classic;html=1;rounded=0;exitX=0.5;exitY=1;exitDx=0;exitDy=0;entryX=0.5;entryY=1;entryDx=0;entryDy=0;" parent="1" source="y30Y0a8EccLe6s_auats-9" target="y30Y0a8EccLe6s_auats-1" edge="1">
          <mxGeometry relative="1" as="geometry">
            <mxPoint x="360" y="130" as="sourcePoint" />
            <mxPoint x="460" y="130" as="targetPoint" />
            <Array as="points">
              <mxPoint x="565" y="180" />
              <mxPoint x="333" y="180" />
            </Array>
          </mxGeometry>
        </mxCell>
        <mxCell id="y30Y0a8EccLe6s_auats-37" value="Fattura" style="edgeLabel;resizable=0;html=1;align=center;verticalAlign=middle;" parent="y30Y0a8EccLe6s_auats-36" connectable="0" vertex="1">
          <mxGeometry relative="1" as="geometry" />
        </mxCell>
      </root>
    </mxGraphModel>
  </diagram>
</mxfile>
